<svg height=" 351.0mm" width="114mm" style="background-color:white" viewBox="0   -150 480   1755">
<text x="0" y="0" font-size="20.8" font-family="FifteenTwenty" font-weight="500" fill="Black">* 1020 FIRMWARE/HARDWARE CHECK (REV 1) *</text>
<text x="0" y="62.4" font-size="20.8" font-family="FifteenTwenty" font-weight="500" fill="Black">* TEXT MODE</text>
<text x="0" y="83.2" font-size="20.8" font-family="FifteenTwenty" font-weight="500" fill="Black">   FULL CHARACTER SET IN 20-CHAR MODE</text>
<text x="0" y="124.8" font-size="41.6" font-family="FifteenTwenty" font-weight="400" fill="Green"></text>
<text x="0" y="166.4" font-size="41.6" font-family="FifteenTwenty" font-weight="400" fill="Green"> !"#$%&'()*+,-./0123</text>
<text x="0" y="208" font-size="41.6" font-family="FifteenTwenty" font-weight="400" fill="Green">456789:;<=>?@ABCDEFG</text>
<text x="0" y="249.6" font-size="41.6" font-family="FifteenTwenty" font-weight="400" fill="Green">HIJKLMNOPQRSTUVWXYZ[</text>
<text x="0" y="291.2" font-size="41.6" font-family="FifteenTwenty" font-weight="400" fill="Green">\]^_`abcdefghijklmno</text>
<text x="0" y="332.8" font-size="41.6" font-family="FifteenTwenty" font-weight="400" fill="Green">pqrstuvwxyz{|}~</text>
<text x="0" y="374.4" font-size="20.8" font-family="FifteenTwenty" font-weight="500" fill="Black">   FULL CHARACTER SET IN 40-CHAR MODE</text>
<text x="0" y="395.2" font-size="20.8" font-family="FifteenTwenty" font-weight="500" fill="Blue"></text>
<text x="0" y="416" font-size="20.8" font-family="FifteenTwenty" font-weight="500" fill="Blue"> !"#$%&'()*+,-./0123456789:;<=>?@ABCDEFG</text>
<text x="0" y="436.8" font-size="20.8" font-family="FifteenTwenty" font-weight="500" fill="Blue">HIJKLMNOPQRSTUVWXYZ[\]^_`abcdefghijklmno</text>
<text x="0" y="457.6" font-size="20.8" font-family="FifteenTwenty" font-weight="500" fill="Blue">pqrstuvwxyz{|}~</text>
<text x="0" y="478.4" font-size="20.8" font-family="FifteenTwenty" font-weight="500" fill="Black">   FULL CHARACTER SET IN 80-CHAR MODE</text>
<text x="0" y="509.6" font-size="10.4" font-family="FifteenTwenty" font-weight="700" fill="Red"></text>
<text x="0" y="520" font-size="10.4" font-family="FifteenTwenty" font-weight="700" fill="Red"> !"#$%&'()*+,-./0123456789:;<=>?@ABCDEFGHIJKLMNOPQRSTUVWXYZ[\]^_`abcdefghijklmno</text>
<text x="0" y="530.4" font-size="10.4" font-family="FifteenTwenty" font-weight="700" fill="Red">pqrstuvwxyz{|}~</text>
<text x="0" y="572" font-size="20.8" font-family="FifteenTwenty" font-weight="500" fill="Black">* GRAPHIC MODE</text>
<text x="0" y="613.6" font-size="20.8" font-family="FifteenTwenty" font-weight="500" fill="Black">   LINE TYPE 0 TO 17</text>
<line stroke="Blue" stroke-width="1.5" stroke-linecap="round" stroke-dasharray="0,0" x1="0" x2="200" y1="655.2" y2="655.2" />
<line stroke="Blue" stroke-width="1.5" stroke-linecap="round" stroke-dasharray="1,1" x1="240" x2="440" y1="655.2" y2="655.2" />
<line stroke="Blue" stroke-width="1.5" stroke-linecap="round" stroke-dasharray="2,2" x1="0" x2="200" y1="675.2" y2="675.2" />
<line stroke="Blue" stroke-width="1.5" stroke-linecap="round" stroke-dasharray="3,3" x1="240" x2="440" y1="675.2" y2="675.2" />
<line stroke="Blue" stroke-width="1.5" stroke-linecap="round" stroke-dasharray="4,4" x1="0" x2="200" y1="695.2" y2="695.2" />
<line stroke="Blue" stroke-width="1.5" stroke-linecap="round" stroke-dasharray="5,5" x1="240" x2="440" y1="695.2" y2="695.2" />
<line stroke="Blue" stroke-width="1.5" stroke-linecap="round" stroke-dasharray="6,6" x1="0" x2="200" y1="715.2" y2="715.2" />
<line stroke="Blue" stroke-width="1.5" stroke-linecap="round" stroke-dasharray="7,7" x1="240" x2="440" y1="715.2" y2="715.2" />
<line stroke="Blue" stroke-width="1.5" stroke-linecap="round" stroke-dasharray="8,8" x1="0" x2="200" y1="735.2" y2="735.2" />
<line stroke="Blue" stroke-width="1.5" stroke-linecap="round" stroke-dasharray="9,9" x1="240" x2="440" y1="735.2" y2="735.2" />
<line stroke="Blue" stroke-width="1.5" stroke-linecap="round" stroke-dasharray="10,10" x1="0" x2="200" y1="755.2" y2="755.2" />
<line stroke="Blue" stroke-width="1.5" stroke-linecap="round" stroke-dasharray="11,11" x1="240" x2="440" y1="755.2" y2="755.2" />
<line stroke="Blue" stroke-width="1.5" stroke-linecap="round" stroke-dasharray="12,12" x1="0" x2="200" y1="775.2" y2="775.2" />
<line stroke="Blue" stroke-width="1.5" stroke-linecap="round" stroke-dasharray="13,13" x1="240" x2="440" y1="775.2" y2="775.2" />
<line stroke="Blue" stroke-width="1.5" stroke-linecap="round" stroke-dasharray="14,14" x1="0" x2="200" y1="795.2" y2="795.2" />
<line stroke="Blue" stroke-width="1.5" stroke-linecap="round" stroke-dasharray="15,15" x1="240" x2="440" y1="795.2" y2="795.2" />
<line stroke="Blue" stroke-width="1.5" stroke-linecap="round" stroke-dasharray="16,16" x1="0" x2="200" y1="815.2" y2="815.2" />
<line stroke="Blue" stroke-width="1.5" stroke-linecap="round" stroke-dasharray="17,17" x1="240" x2="440" y1="815.2" y2="815.2" />
<text x="0" y="856" font-size="20.8" font-family="FifteenTwenty" font-weight="500" fill="Black">   SCALE 0,31,63,64</text>
<text x="0" y="1235.2" font-size="10.4" font-family="FifteenTwenty" font-weight="700" fill="Green" transform="rotate(0 0,1235.2)">S</text>
<text x="20" y="1266.2" font-size="332.8" font-family="FifteenTwenty" font-weight="300" fill="Green" transform="rotate(0 20,1266.2)">S</text>
<text x="190" y="1298.2" font-size="665.6" font-family="FifteenTwenty" font-weight="300" fill="Green" transform="rotate(0 190,1298.2)">S</text>
<text x="470" y="1235.2" font-size="10.4" font-family="FifteenTwenty" font-weight="700" fill="Green" transform="rotate(0 470,1235.2)">S</text>
<text x="0" y="1276.8" font-size="20.8" font-family="FifteenTwenty" font-weight="500" fill="Black">   ROTATE 0 TO 4</text>
<text x="50" y="1285.2" font-size="62.4" font-family="FifteenTwenty" font-weight="400" fill="Red" transform="rotate(0 50,1285.2)">Q0</text>
<text x="122" y="1285.2" font-size="62.4" font-family="FifteenTwenty" font-weight="400" fill="Red" transform="rotate(90 122,1285.2)">Q1</text>
<text x="122" y="1357.2" font-size="62.4" font-family="FifteenTwenty" font-weight="400" fill="Red" transform="rotate(180 122,1357.2)">Q2</text>
<text x="50" y="1357.2" font-size="62.4" font-family="FifteenTwenty" font-weight="400" fill="Red" transform="rotate(270 50,1357.2)">Q3</text>
<text x="0" y="1455.2" font-size="20.8" font-family="FifteenTwenty" font-weight="500" fill="Black">   PLOTTING ABILITY</text>
<line stroke="Black" stroke-width="1.5" stroke-linecap="round" stroke-dasharray="17,17" x1="240" x2="300" y1="1385.2" y2="1265.2" />
<line stroke="Blue" stroke-width="1.5" stroke-linecap="round" stroke-dasharray="17,17" x1="1300" x2="1420" y1="1505.2" y2="1265.2" />
<line stroke="Green" stroke-width="1.5" stroke-linecap="round" stroke-dasharray="17,17" x1="1420" x2="1540" y1="1505.2" y2="1265.2" />
<line stroke="Red" stroke-width="1.5" stroke-linecap="round" stroke-dasharray="17,17" x1="1540" x2="1660" y1="1505.2" y2="1265.2" />
<line stroke="Black" stroke-width="1.5" stroke-linecap="round" stroke-dasharray="17,17" x1="1660" x2="1720" y1="1505.2" y2="1385.2" />
</svg>

