<svg height="441pt" viewBox="0 0 441 441.66024" width="441pt" xmlns="http://www.w3.org/2000/svg"><path d="m234.21875 259.230469c29.914062-41.117188 83.300781-57.675781 131.230469-40.703125 47.929687 16.972656 78.996093 63.441406 76.363281 114.21875s-38.339844 93.785156-87.769531 105.710937c-49.425781 11.925781-100.8125-10.066406-126.3125-54.058593-2.015625-3.457032-3.847657-7.023438-5.480469-10.679688-16.777344-37.554688-12.214844-81.214844 11.96875-114.488281zm179.589844 67.558593c0-47.875-38.8125-86.6875-86.6875-86.6875-47.878906 0-86.691406 38.8125-86.691406 86.6875 0 47.878907 38.8125 86.691407 86.691406 86.691407 47.875-.003907 86.6875-38.8125 86.6875-86.691407zm0 0" fill="#f4b844"/><path d="m413.808594 326.789062c0 47.878907-38.8125 86.691407-86.6875 86.691407-47.878906 0-86.691406-38.8125-86.691406-86.691407 0-47.875 38.8125-86.6875 86.691406-86.6875 47.875 0 86.6875 38.8125 86.6875 86.6875zm0 0" fill="#fedb41"/><path d="m387.660156 193.660156h-83.140625c0-30.910156-4.789062-60.359375-14.109375-86.941406 18.601563-10.671875 35.269532-24.402344 49.308594-40.609375 30.96875 35.269531 48.011719 80.617187 47.941406 127.550781zm0 0" fill="#00efd1"/><path d="m304.519531 193.660156h83.140625c0 11.257813-.96875 22.496094-2.898437 33.589844l-.070313.121094c-24.445312-14.113282-53.214844-18.773438-80.859375-13.089844l-.03125-.121094c.480469-6.75.71875-13.582031.71875-20.488281zm0 0" fill="#00acea"/><path d="m198.992188.0585938c54.085937 1.3398442 105.136718 25.3007812 140.726562 66.0507812-14.039062 16.207031-30.707031 29.9375-49.308594 40.609375-16.609375-47.398438-47.601562-85.648438-91.417968-106.6601562zm0 0" fill="#00acea"/><path d="m304.519531 193.660156v.011719c0 6.90625-.238281 13.738281-.71875 20.488281l.03125.121094c-27.988281 5.804688-52.804687 21.828125-69.613281 44.949219-13.070312-2.722657-26.386719-4.074219-39.738281-4.03125h-.488281v-61.539063zm0 0" fill="#00efd1"/><path d="m304.519531 193.660156h-110.527343v-61.539062h.488281c33.65625.121094 66.746093-8.640625 95.929687-25.402344 9.320313 26.582031 14.109375 56.03125 14.109375 86.941406zm0 0" fill="#00acea"/><path d="m198.992188.0585938c43.816406 21.0117182 74.808593 59.2617182 91.417968 106.6601562-29.183594 16.761719-62.273437 25.523438-95.929687 25.402344h-.488281v-132.121094c1.667968 0 3.328124.0195312 4.988281.0585938zm0 0" fill="#00efd1"/><path d="m222.25 373.71875-.039062.019531c-7.355469 5.125-15.109376 9.648438-23.191407 13.523438-1.667969.046875-3.347656.066406-5.027343.066406v-132.128906h.488281c13.351562-.042969 26.667969 1.308593 39.738281 4.03125-24.183594 33.273437-28.746094 76.933593-11.96875 114.488281zm0 0" fill="#00acea"/><path d="m193.992188 369.71875v17.609375c-1.671876 0-3.34375-.019531-5-.058594h-.011719c-43.769531-20.988281-74.71875-59.167969-91.339844-106.480469 29.328125-16.808593 62.546875-25.628906 96.351563-25.589843zm0 0" fill="#00efd1"/><path d="m193.992188 193.660156v61.539063c-33.804688-.039063-67.023438 8.78125-96.351563 25.589843-9.359375-26.628906-14.171875-56.140624-14.171875-87.117187v-.011719zm0 0" fill="#00acea"/><path d="m193.992188 132.121094v61.539062h-110.523438c0-30.980468 4.820312-60.5 14.179688-87.128906 29.324218 16.804688 62.542968 25.628906 96.34375 25.589844zm0 0" fill="#00efd1"/><path d="m193.992188 17.601562v114.519532c-33.800782.039062-67.019532-8.785156-96.34375-25.589844 16.621093-47.3125 47.570312-85.492188 91.34375-106.4726562h.007812c1.660156-.0390626 3.320312-.0585938 4.992188-.0585938zm0 0" fill="#00acea"/><path d="m188.992188.0585938c-43.773438 20.9804682-74.722657 59.1601562-91.34375 106.4726562-18.589844-10.644531-35.277344-24.304688-49.386719-40.421875 35.589843-40.75 86.640625-64.710937 140.730469-66.0507812zm0 0" fill="#00efd1"/><path d="m97.640625 280.789062c16.621094 47.3125 47.570313 85.492188 91.339844 106.480469-54.085938-1.347656-105.128907-25.304687-140.71875-66.050781 14.101562-16.121094 30.789062-29.785156 49.378906-40.429688zm0 0" fill="#00acea"/><path d="m97.648438 106.53125c-9.359376 26.628906-14.179688 56.148438-14.179688 87.128906h-83.136719c-.074219-46.933594 16.964844-92.28125 47.929688-127.550781 14.109375 16.117187 30.796875 29.777344 49.386719 40.421875zm0 0" fill="#00acea"/><g fill="#00efd1"><path d="m83.46875 193.671875c0 30.976563 4.8125 60.488281 14.171875 87.117187-18.589844 10.644532-35.277344 24.308594-49.378906 40.429688-30.964844-35.273438-48.003907-80.625-47.929688-127.558594h83.136719zm0 0"/><path d="m360.859375 342.019531h-38.558594c-4.417969 0-8-3.582031-8-8v-50.597656c0-4.421875 3.582031-8 8-8s8 3.578125 8 8v42.597656h30.558594c4.417969 0 8 3.582031 8 8s-3.582031 8-8 8zm0 0"/></g></svg>