<?xml version="1.0" encoding="UTF-8" standalone="no"?>
<!DOCTYPE svg PUBLIC "-//W3C//DTD SVG 1.1//EN" "http://www.w3.org/Graphics/SVG/1.1/DTD/svg11.dtd">
<svg width="594px" height="191px" version="1.1" xmlns="http://www.w3.org/2000/svg" xmlns:xlink="http://www.w3.org/1999/xlink" xml:space="preserve" xmlns:serif="http://www.serif.com/" style="fill-rule:evenodd;clip-rule:evenodd;stroke-linejoin:round;stroke-miterlimit:2;">
    <g>
        <g id="Logo">
            <rect x="239.009" y="39.564" width="117.142" height="2"/>
            <rect x="256.127" y="28.101" width="2" height="121.63"/>
            <rect x="297.717" y="0" width="2" height="63.389"/>
            <rect x="297.717" y="103.58" width="2" height="73.499"/>
            <rect x="244.995" y="125.206" width="130.499" height="2"/>
            <rect x="340.947" y="29.018" width="2" height="161.189"/>
            <rect x="288.832" y="166.996" width="112.957" height="2"/>
            <rect x="384.624" y="143.092" width="2" height="44.561"/>
            <rect x="212.213" y="74.114" width="2" height="26.423"/>
            <rect x="318.746" y="82.704" width="52.33" height="2"/>
            <rect x="209.92" y="82.704" width="68.768" height="2"/>
            <circle cx="298.329" cy="83.704" r="20.932" style="fill:#fff;"/>
            <path d="M298.468,61.975l0.141,0l0.14,0.003l0.14,0.003l0.139,0.004l0.14,0.005l0.138,0.005l0.14,0.008l0.139,0.007l0.138,0.008l0.139,0.009l0.275,0.021l0.137,0.012l0.137,0.013l0.138,0.013l0.136,0.015l0.137,0.015l0.136,0.015l0.136,0.018l0.136,0.018l0.136,0.018l0.27,0.039l0.269,0.043l0.134,0.023l0.134,0.023l0.133,0.025l0.134,0.025l0.132,0.026l0.134,0.027l0.132,0.027l0.132,0.029l0.132,0.029l0.132,0.03l0.13,0.03l0.131,0.032l0.131,0.032l0.13,0.034l0.26,0.068l0.13,0.035l0.257,0.074l0.256,0.076l0.128,0.039l0.254,0.082l0.127,0.041l0.127,0.042l0.126,0.044l0.25,0.088l0.126,0.045l0.373,0.141l0.123,0.048l0.123,0.049l0.123,0.05l0.122,0.051l0.122,0.05l0.122,0.053l0.122,0.053l0.12,0.053l0.12,0.054l0.121,0.055l0.12,0.055l0.238,0.113l0.118,0.058l0.119,0.058l0.234,0.119l0.117,0.06l0.233,0.123l0.116,0.062l0.115,0.063l0.115,0.064l0.114,0.065l0.114,0.065l0.113,0.065l0.114,0.067l0.113,0.067l0.111,0.067l0.112,0.069l0.112,0.069l0.111,0.07l0.11,0.07l0.11,0.071l0.218,0.144l0.109,0.073l0.109,0.073l0.214,0.15l0.107,0.076l0.107,0.075l0.105,0.077l0.106,0.077l0.104,0.078l0.105,0.079l0.103,0.079l0.104,0.08l0.103,0.08l0.102,0.081l0.102,0.082l0.101,0.082l0.202,0.166l0.1,0.084l0.198,0.169l0.098,0.087l0.098,0.085l0.194,0.175l0.096,0.088l0.096,0.089l0.19,0.178l0.094,0.09l0.093,0.091l0.094,0.091l0.092,0.092l0.184,0.186l0.18,0.187l0.09,0.095l0.089,0.095l0.088,0.096l0.089,0.096l0.087,0.097l0.087,0.097l0.086,0.098l0.086,0.099l0.085,0.099l0.084,0.099l0.168,0.2l0.083,0.101l0.164,0.204l0.08,0.101l0.081,0.103l0.159,0.207l0.078,0.105l0.078,0.105l0.077,0.105l0.153,0.213l0.076,0.106l0.075,0.107l0.148,0.216l0.073,0.109l0.072,0.109l0.142,0.219l0.07,0.11l0.071,0.111l0.137,0.224l0.135,0.225l0.066,0.113l0.066,0.113l0.065,0.115l0.128,0.229l0.063,0.115l0.062,0.115l0.062,0.116l0.062,0.117l0.06,0.117l0.06,0.117l0.117,0.236l0.057,0.119l0.057,0.119l0.056,0.119l0.056,0.12l0.055,0.12l0.054,0.12l0.053,0.121l0.105,0.244l0.051,0.121l0.051,0.123l0.049,0.122l0.05,0.124l0.095,0.247l0.047,0.124l0.046,0.124l0.09,0.251l0.044,0.126l0.043,0.125l0.042,0.127l0.042,0.127l0.041,0.127l0.04,0.128l0.039,0.127l0.039,0.128l0.038,0.128l0.037,0.129l0.036,0.129l0.035,0.129l0.035,0.13l0.034,0.13l0.033,0.13l0.032,0.131l0.032,0.131l0.061,0.263l0.029,0.131l0.056,0.265l0.027,0.133l0.05,0.266l0.025,0.134l0.023,0.133l0.023,0.134l0.022,0.135l0.041,0.27l0.038,0.27l0.017,0.137l0.018,0.135l0.016,0.137l0.015,0.136l0.015,0.137l0.013,0.137l0.013,0.137l0.011,0.138l0.011,0.137l0.01,0.138l0.009,0.138l0.009,0.139l0.007,0.139l0.013,0.277l0.004,0.14l0.008,0.279l0.003,0.281l0,0.281l-0.002,0.139l-0.001,0.141l-0.004,0.14l-0.004,0.139l-0.004,0.14l-0.006,0.139l-0.007,0.139l-0.007,0.138l-0.009,0.139l-0.009,0.138l-0.01,0.138l-0.011,0.138l-0.011,0.138l-0.013,0.137l-0.013,0.137l-0.015,0.137l-0.015,0.136l-0.016,0.136l-0.018,0.136l-0.017,0.136l-0.019,0.135l-0.019,0.135l-0.02,0.135l-0.021,0.136l-0.022,0.134l-0.023,0.134l-0.023,0.133l-0.025,0.134l-0.025,0.133l-0.025,0.134l-0.027,0.132l-0.028,0.133l-0.028,0.132l-0.029,0.132l-0.031,0.131l-0.03,0.132l-0.032,0.13l-0.032,0.131l-0.033,0.13l-0.034,0.13l-0.035,0.13l-0.035,0.129l-0.036,0.129l-0.037,0.129l-0.038,0.129l-0.039,0.128l-0.039,0.127l-0.04,0.128l-0.041,0.127l-0.042,0.126l-0.042,0.127l-0.043,0.125l-0.044,0.126l-0.045,0.126l-0.045,0.125l-0.046,0.124l-0.047,0.125l-0.048,0.123l-0.047,0.124l-0.05,0.123l-0.049,0.123l-0.051,0.122l-0.051,0.122l-0.053,0.121l-0.052,0.122l-0.053,0.121l-0.054,0.121l-0.055,0.119l-0.056,0.12l-0.056,0.119l-0.057,0.119l-0.057,0.119l-0.059,0.118l-0.058,0.118l-0.06,0.117l-0.06,0.118l-0.062,0.116l-0.062,0.116l-0.062,0.115l-0.063,0.116l-0.064,0.114l-0.064,0.115l-0.065,0.114l-0.066,0.114l-0.066,0.112l-0.068,0.113l-0.067,0.113l-0.069,0.111l-0.068,0.111l-0.071,0.112l-0.07,0.11l-0.071,0.11l-0.071,0.11l-0.072,0.109l-0.073,0.108l-0.074,0.108l-0.074,0.108l-0.075,0.107l-0.076,0.107l-0.076,0.106l-0.077,0.106l-0.077,0.105l-0.078,0.105l-0.078,0.105l-0.08,0.104l-0.079,0.103l-0.081,0.103l-0.08,0.102l-0.082,0.102l-0.082,0.101l-0.083,0.101l-0.084,0.1l-0.084,0.1l-0.084,0.1l-0.085,0.099l-0.086,0.098l-0.086,0.098l-0.087,0.097l-0.087,0.097l-0.089,0.096l-0.088,0.096l-0.089,0.095l-0.09,0.095l-0.09,0.094l-0.09,0.093l-0.092,0.093l-0.092,0.093l-0.092,0.092l-0.094,0.091l-0.093,0.091l-0.094,0.09l-0.095,0.089l-0.095,0.09l-0.096,0.089l-0.096,0.087l-0.097,0.088l-0.097,0.087l-0.098,0.086l-0.098,0.086l-0.099,0.085l-0.099,0.085l-0.1,0.083l-0.101,0.083l-0.101,0.083l-0.101,0.082l-0.102,0.082l-0.102,0.081l-0.103,0.08l-0.104,0.081l-0.103,0.078l-0.105,0.079l-0.104,0.078l-0.106,0.077l-0.105,0.077l-0.107,0.076l-0.107,0.075l-0.107,0.075l-0.107,0.074l-0.109,0.074l-0.109,0.073l-0.109,0.072l-0.109,0.072l-0.11,0.071l-0.11,0.071l-0.111,0.069l-0.112,0.069l-0.112,0.069l-0.111,0.067l-0.113,0.067l-0.114,0.067l-0.113,0.066l-0.114,0.065l-0.114,0.064l-0.115,0.064l-0.115,0.063l-0.116,0.063l-0.116,0.061l-0.117,0.061l-0.117,0.061l-0.117,0.059l-0.117,0.06l-0.119,0.057l-0.118,0.058l-0.119,0.057l-0.119,0.056l-0.12,0.055l-0.121,0.055l-0.12,0.054l-0.12,0.054l-0.122,0.053l-0.122,0.051l-0.122,0.052l-0.122,0.05l-0.123,0.05l-0.123,0.049l-0.123,0.049l-0.125,0.047l-0.124,0.046l-0.124,0.047l-0.126,0.045l-0.125,0.045l-0.125,0.044l-0.126,0.043l-0.127,0.042l-0.127,0.042l-0.127,0.04l-0.127,0.041l-0.128,0.039l-0.128,0.038l-0.128,0.038l-0.128,0.037l-0.129,0.037l-0.13,0.035l-0.13,0.035l-0.13,0.034l-0.13,0.033l-0.131,0.033l-0.131,0.031l-0.13,0.031l-0.132,0.029l-0.132,0.029l-0.132,0.029l-0.132,0.027l-0.134,0.027l-0.132,0.026l-0.134,0.026l-0.133,0.024l-0.134,0.023l-0.134,0.023l-0.135,0.021l-0.134,0.022l-0.135,0.02l-0.135,0.02l-0.136,0.018l-0.136,0.018l-0.136,0.017l-0.136,0.015l-0.137,0.016l-0.136,0.014l-0.138,0.014l-0.137,0.012l-0.137,0.012l-0.138,0.011l-0.137,0.01l-0.139,0.009l-0.138,0.009l-0.139,0.007l-0.14,0.007l-0.138,0.005l-0.14,0.005l-0.139,0.004l-0.14,0.003l-0.14,0.003l-0.141,0.001l-0.139,0.001l-0.141,-0.001l-0.14,-0.001l-0.14,-0.003l-0.14,-0.003l-0.139,-0.004l-0.14,-0.005l-0.139,-0.005l-0.14,-0.007l-0.137,-0.007l-0.139,-0.009l-0.139,-0.009l-0.138,-0.01l-0.138,-0.011l-0.137,-0.012l-0.137,-0.012l-0.137,-0.014l-0.137,-0.014l-0.137,-0.016l-0.136,-0.015l-0.136,-0.017l-0.136,-0.018l-0.135,-0.018l-0.135,-0.02l-0.135,-0.02l-0.135,-0.022l-0.134,-0.021l-0.134,-0.023l-0.135,-0.023l-0.133,-0.024l-0.133,-0.026l-0.133,-0.026l-0.133,-0.027l-0.133,-0.027l-0.131,-0.029l-0.133,-0.029l-0.13,-0.029l-0.132,-0.031l-0.131,-0.031l-0.13,-0.033l-0.131,-0.033l-0.13,-0.034l-0.129,-0.035l-0.13,-0.035l-0.129,-0.037l-0.129,-0.037l-0.128,-0.038l-0.128,-0.038l-0.128,-0.039l-0.127,-0.041l-0.127,-0.04l-0.127,-0.042l-0.126,-0.042l-0.126,-0.043l-0.126,-0.044l-0.125,-0.045l-0.125,-0.045l-0.124,-0.047l-0.125,-0.046l-0.124,-0.047l-0.124,-0.049l-0.122,-0.049l-0.124,-0.05l-0.121,-0.05l-0.123,-0.052l-0.121,-0.051l-0.121,-0.053l-0.122,-0.054l-0.12,-0.054l-0.121,-0.055l-0.118,-0.055l-0.12,-0.056l-0.119,-0.057l-0.118,-0.058l-0.119,-0.057l-0.117,-0.06l-0.118,-0.059l-0.117,-0.061l-0.116,-0.061l-0.116,-0.061l-0.116,-0.063l-0.115,-0.063l-0.115,-0.064l-0.115,-0.064l-0.113,-0.065l-0.114,-0.066l-0.113,-0.067l-0.113,-0.067l-0.112,-0.067l-0.111,-0.069l-0.112,-0.069l-0.111,-0.069l-0.111,-0.071l-0.11,-0.071l-0.109,-0.072l-0.109,-0.072l-0.109,-0.073l-0.108,-0.074l-0.107,-0.074l-0.108,-0.075l-0.107,-0.075l-0.106,-0.076l-0.106,-0.077l-0.105,-0.077l-0.105,-0.078l-0.104,-0.079l-0.104,-0.078l-0.103,-0.081l-0.103,-0.08l-0.103,-0.081l-0.102,-0.082l-0.101,-0.082l-0.101,-0.083l-0.1,-0.083l-0.1,-0.083l-0.1,-0.085l-0.098,-0.085l-0.099,-0.086l-0.097,-0.086l-0.098,-0.087l-0.096,-0.088l-0.096,-0.087l-0.096,-0.089l-0.095,-0.09l-0.095,-0.089l-0.094,-0.09l-0.094,-0.091l-0.093,-0.091l-0.092,-0.092l-0.092,-0.093l-0.091,-0.093l-0.091,-0.093l-0.09,-0.094l-0.09,-0.095l-0.09,-0.095l-0.088,-0.096l-0.088,-0.096l-0.088,-0.097l-0.086,-0.097l-0.087,-0.098l-0.085,-0.098l-0.085,-0.099l-0.085,-0.1l-0.083,-0.1l-0.084,-0.1l-0.083,-0.101l-0.082,-0.101l-0.081,-0.102l-0.081,-0.102l-0.082,-0.103l-0.079,-0.103l-0.079,-0.104l-0.079,-0.105l-0.078,-0.105l-0.077,-0.105l-0.076,-0.106l-0.077,-0.106l-0.075,-0.107l-0.075,-0.107l-0.074,-0.108l-0.074,-0.108l-0.073,-0.108l-0.072,-0.109l-0.071,-0.11l-0.071,-0.11l-0.071,-0.11l-0.07,-0.112l-0.069,-0.111l-0.068,-0.111l-0.068,-0.113l-0.067,-0.113l-0.066,-0.112l-0.066,-0.114l-0.066,-0.114l-0.064,-0.115l-0.064,-0.114l-0.063,-0.116l-0.062,-0.115l-0.062,-0.116l-0.061,-0.116l-0.061,-0.118l-0.059,-0.117l-0.059,-0.118l-0.058,-0.118l-0.058,-0.119l-0.057,-0.119l-0.056,-0.119l-0.055,-0.12l-0.055,-0.119l-0.054,-0.121l-0.054,-0.121l-0.052,-0.122l-0.052,-0.121l-0.052,-0.122l-0.05,-0.122l-0.05,-0.123l-0.048,-0.123l-0.049,-0.124l-0.048,-0.123l-0.047,-0.125l-0.045,-0.124l-0.046,-0.125l-0.045,-0.126l-0.043,-0.126l-0.043,-0.125l-0.042,-0.127l-0.043,-0.126l-0.04,-0.127l-0.04,-0.128l-0.04,-0.127l-0.038,-0.128l-0.038,-0.129l-0.037,-0.129l-0.036,-0.129l-0.035,-0.129l-0.036,-0.13l-0.033,-0.13l-0.033,-0.13l-0.033,-0.131l-0.031,-0.13l-0.031,-0.132l-0.03,-0.131l-0.029,-0.132l-0.028,-0.132l-0.028,-0.133l-0.027,-0.132l-0.025,-0.134l-0.026,-0.133l-0.024,-0.134l-0.023,-0.133l-0.024,-0.134l-0.022,-0.134l-0.02,-0.136l-0.021,-0.135l-0.019,-0.135l-0.019,-0.135l-0.017,-0.136l-0.017,-0.136l-0.016,-0.136l-0.016,-0.136l-0.014,-0.137l-0.014,-0.137l-0.012,-0.137l-0.012,-0.138l-0.011,-0.138l-0.01,-0.138l-0.009,-0.138l-0.008,-0.139l-0.008,-0.138l-0.006,-0.139l-0.006,-0.139l-0.005,-0.14l-0.004,-0.139l-0.003,-0.14l-0.002,-0.141l-0.002,-0.139l0,-0.141l0,-0.14l0.002,-0.14l0.002,-0.141l0.003,-0.139l0.004,-0.14l0.005,-0.14l0.006,-0.138l0.006,-0.139l0.008,-0.139l0.008,-0.139l0.009,-0.138l0.01,-0.138l0.011,-0.137l0.012,-0.138l0.012,-0.137l0.014,-0.137l0.014,-0.137l0.016,-0.136l0.016,-0.137l0.017,-0.135l0.017,-0.137l0.019,-0.135l0.019,-0.135l0.021,-0.135l0.02,-0.135l0.022,-0.135l0.024,-0.134l0.023,-0.133l0.024,-0.134l0.026,-0.133l0.025,-0.133l0.027,-0.133l0.028,-0.132l0.028,-0.133l0.029,-0.131l0.03,-0.132l0.031,-0.131l0.031,-0.131l0.033,-0.131l0.033,-0.13l0.033,-0.13l0.036,-0.13l0.035,-0.129l0.036,-0.129l0.037,-0.129l0.038,-0.128l0.038,-0.128l0.04,-0.127l0.04,-0.128l0.04,-0.127l0.043,-0.127l0.042,-0.127l0.043,-0.125l0.043,-0.126l0.045,-0.125l0.046,-0.126l0.045,-0.124l0.047,-0.124l0.048,-0.124l0.049,-0.123l0.048,-0.124l0.05,-0.122l0.05,-0.123l0.052,-0.121l0.052,-0.122l0.052,-0.122l0.054,-0.121l0.054,-0.12l0.055,-0.12l0.055,-0.12l0.056,-0.119l0.057,-0.119l0.058,-0.119l0.058,-0.118l0.059,-0.118l0.059,-0.117l0.061,-0.117l0.061,-0.117l0.062,-0.116l0.062,-0.115l0.063,-0.115l0.064,-0.115l0.064,-0.114l0.066,-0.115l0.066,-0.113l0.066,-0.113l0.067,-0.113l0.068,-0.112l0.068,-0.112l0.069,-0.112l0.07,-0.111l0.071,-0.11l0.071,-0.11l0.071,-0.109l0.072,-0.109l0.073,-0.109l0.074,-0.108l0.074,-0.108l0.075,-0.107l0.075,-0.106l0.077,-0.107l0.076,-0.106l0.077,-0.105l0.078,-0.105l0.079,-0.105l0.079,-0.103l0.079,-0.104l0.082,-0.103l0.081,-0.101l0.081,-0.102l0.082,-0.102l0.083,-0.101l0.084,-0.1l0.083,-0.1l0.085,-0.099l0.085,-0.099l0.085,-0.099l0.087,-0.098l0.086,-0.097l0.088,-0.097l0.088,-0.096l0.088,-0.096l0.09,-0.095l0.09,-0.095l0.09,-0.093l0.091,-0.094l0.091,-0.093l0.092,-0.093l0.092,-0.092l0.093,-0.091l0.094,-0.091l0.094,-0.09l0.095,-0.089l0.095,-0.089l0.096,-0.089l0.096,-0.088l0.096,-0.087l0.098,-0.088l0.097,-0.085l0.099,-0.087l0.098,-0.085l0.1,-0.084l0.1,-0.084l0.1,-0.083l0.101,-0.083l0.101,-0.082l0.102,-0.082l0.103,-0.081l0.103,-0.08l0.103,-0.08l0.104,-0.079l0.104,-0.079l0.105,-0.078l0.105,-0.077l0.106,-0.077l0.106,-0.075l0.107,-0.076l0.108,-0.075l0.107,-0.075l0.108,-0.073l0.109,-0.073l0.109,-0.072l0.109,-0.072l0.11,-0.071l0.111,-0.07l0.111,-0.07l0.112,-0.069l0.111,-0.069l0.112,-0.067l0.113,-0.067l0.113,-0.067l0.114,-0.065l0.113,-0.065l0.115,-0.065l0.115,-0.064l0.115,-0.063l0.116,-0.062l0.116,-0.062l0.116,-0.061l0.117,-0.06l0.118,-0.06l0.117,-0.059l0.119,-0.058l0.118,-0.058l0.119,-0.056l0.12,-0.057l0.118,-0.055l0.121,-0.055l0.12,-0.054l0.122,-0.053l0.121,-0.053l0.121,-0.053l0.123,-0.05l0.121,-0.051l0.124,-0.05l0.122,-0.049l0.124,-0.048l0.124,-0.047l0.125,-0.047l0.124,-0.047l0.125,-0.045l0.125,-0.044l0.126,-0.044l0.126,-0.044l0.126,-0.042l0.127,-0.041l0.127,-0.041l0.127,-0.041l0.128,-0.039l0.128,-0.038l0.128,-0.038l0.129,-0.037l0.129,-0.037l0.13,-0.035l0.129,-0.034l0.13,-0.034l0.131,-0.034l0.13,-0.032l0.131,-0.032l0.132,-0.03l0.13,-0.03l0.133,-0.029l0.131,-0.029l0.133,-0.027l0.133,-0.027l0.133,-0.026l0.133,-0.025l0.133,-0.025l0.135,-0.023l0.134,-0.023l0.134,-0.021l0.135,-0.022l0.135,-0.02l0.135,-0.019l0.135,-0.018l0.136,-0.018l0.136,-0.018l0.136,-0.015l0.137,-0.015l0.137,-0.015l0.137,-0.013l0.137,-0.013l0.137,-0.012l0.138,-0.01l0.138,-0.011l0.139,-0.009l0.139,-0.008l0.137,-0.007l0.14,-0.008l0.139,-0.005l0.14,-0.005l0.139,-0.004l0.14,-0.003l0.14,-0.003l0.14,0l0.141,-0.001l0.139,0.001Zm-0.265,2.499l-0.124,0.001l-0.123,0.002l-0.125,0.003l-0.123,0.003l-0.125,0.005l-0.122,0.005l-0.124,0.006l-0.122,0.007l-0.123,0.007l-0.122,0.008l-0.123,0.009l-0.121,0.01l-0.122,0.01l-0.122,0.012l-0.121,0.012l-0.121,0.012l-0.121,0.014l-0.121,0.014l-0.12,0.014l-0.12,0.017l-0.12,0.016l-0.12,0.017l-0.119,0.018l-0.119,0.018l-0.119,0.02l-0.119,0.02l-0.119,0.02l-0.117,0.022l-0.118,0.023l-0.118,0.022l-0.117,0.024l-0.117,0.024l-0.117,0.025l-0.117,0.026l-0.116,0.026l-0.116,0.027l-0.116,0.028l-0.115,0.029l-0.115,0.03l-0.115,0.03l-0.115,0.03l-0.114,0.032l-0.114,0.031l-0.114,0.033l-0.113,0.034l-0.114,0.033l-0.112,0.036l-0.113,0.035l-0.113,0.036l-0.111,0.037l-0.112,0.038l-0.112,0.037l-0.111,0.039l-0.111,0.04l-0.109,0.039l-0.111,0.042l-0.11,0.04l-0.109,0.043l-0.109,0.043l-0.109,0.043l-0.109,0.045l-0.109,0.044l-0.107,0.045l-0.108,0.046l-0.107,0.047l-0.106,0.046l-0.108,0.048l-0.106,0.049l-0.105,0.049l-0.106,0.05l-0.105,0.05l-0.105,0.051l-0.104,0.051l-0.105,0.053l-0.104,0.053l-0.103,0.053l-0.103,0.054l-0.103,0.055l-0.102,0.055l-0.102,0.056l-0.102,0.056l-0.101,0.057l-0.101,0.058l-0.1,0.058l-0.1,0.059l-0.1,0.059l-0.099,0.06l-0.099,0.06l-0.099,0.062l-0.098,0.061l-0.098,0.063l-0.097,0.062l-0.098,0.064l-0.096,0.064l-0.096,0.064l-0.096,0.066l-0.095,0.066l-0.095,0.066l-0.095,0.066l-0.093,0.068l-0.094,0.067l-0.094,0.069l-0.093,0.069l-0.092,0.07l-0.092,0.07l-0.091,0.07l-0.092,0.071l-0.09,0.073l-0.091,0.072l-0.089,0.073l-0.089,0.073l-0.089,0.074l-0.089,0.073l-0.088,0.076l-0.087,0.075l-0.088,0.076l-0.086,0.076l-0.086,0.078l-0.085,0.077l-0.086,0.078l-0.085,0.078l-0.084,0.079l-0.084,0.08l-0.083,0.08l-0.083,0.08l-0.083,0.081l-0.081,0.081l-0.082,0.082l-0.081,0.082l-0.08,0.083l-0.081,0.084l-0.079,0.084l-0.078,0.084l-0.079,0.084l-0.078,0.086l-0.078,0.086l-0.076,0.086l-0.077,0.087l-0.076,0.086l-0.075,0.088l-0.075,0.088l-0.074,0.089l-0.074,0.088l-0.074,0.09l-0.073,0.09l-0.072,0.09l-0.071,0.091l-0.071,0.091l-0.071,0.091l-0.07,0.092l-0.07,0.093l-0.069,0.092l-0.068,0.093l-0.069,0.094l-0.066,0.095l-0.067,0.094l-0.067,0.095l-0.065,0.095l-0.065,0.096l-0.065,0.096l-0.064,0.097l-0.063,0.097l-0.063,0.097l-0.062,0.098l-0.062,0.098l-0.061,0.098l-0.06,0.099l-0.061,0.099l-0.059,0.1l-0.059,0.1l-0.058,0.101l-0.058,0.1l-0.057,0.102l-0.057,0.102l-0.055,0.102l-0.055,0.102l-0.055,0.102l-0.054,0.104l-0.054,0.103l-0.052,0.104l-0.052,0.104l-0.052,0.105l-0.051,0.104l-0.05,0.106l-0.05,0.105l-0.049,0.106l-0.048,0.107l-0.048,0.106l-0.048,0.107l-0.046,0.107l-0.046,0.108l-0.045,0.108l-0.045,0.108l-0.044,0.108l-0.043,0.109l-0.043,0.109l-0.042,0.11l-0.041,0.11l-0.041,0.11l-0.041,0.111l-0.038,0.111l-0.039,0.111l-0.039,0.11l-0.037,0.112l-0.037,0.113l-0.036,0.111l-0.035,0.113l-0.035,0.114l-0.034,0.112l-0.034,0.114l-0.032,0.113l-0.032,0.115l-0.032,0.114l-0.031,0.115l-0.029,0.114l-0.029,0.116l-0.029,0.115l-0.028,0.116l-0.027,0.116l-0.027,0.117l-0.025,0.116l-0.026,0.117l-0.024,0.117l-0.023,0.117l-0.024,0.117l-0.022,0.119l-0.021,0.118l-0.021,0.119l-0.02,0.118l-0.019,0.119l-0.019,0.119l-0.018,0.119l-0.017,0.12l-0.017,0.119l-0.015,0.121l-0.015,0.12l-0.015,0.121l-0.013,0.12l-0.013,0.122l-0.012,0.121l-0.01,0.121l-0.011,0.122l-0.01,0.123l-0.009,0.121l-0.008,0.123l-0.007,0.122l-0.007,0.124l-0.006,0.122l-0.005,0.124l-0.004,0.123l-0.004,0.124l-0.002,0.124l-0.002,0.124l-0.002,0.125l0,0.249l0.004,0.248l0.002,0.125l0.004,0.123l0.009,0.247l0.006,0.123l0.007,0.123l0.007,0.123l0.008,0.122l0.009,0.122l0.01,0.122l0.021,0.244l0.012,0.12l0.013,0.122l0.013,0.121l0.015,0.121l0.015,0.119l0.015,0.121l0.017,0.119l0.017,0.12l0.018,0.12l0.038,0.238l0.02,0.118l0.021,0.119l0.021,0.118l0.022,0.118l0.047,0.234l0.024,0.117l0.026,0.117l0.025,0.117l0.054,0.232l0.028,0.116l0.029,0.116l0.029,0.115l0.029,0.115l0.031,0.114l0.032,0.114l0.032,0.115l0.032,0.113l0.034,0.114l0.034,0.113l0.035,0.113l0.035,0.113l0.036,0.112l0.037,0.112l0.037,0.112l0.116,0.332l0.041,0.111l0.041,0.11l0.041,0.11l0.042,0.11l0.043,0.109l0.043,0.109l0.044,0.108l0.09,0.217l0.092,0.214l0.048,0.107l0.048,0.107l0.097,0.212l0.05,0.106l0.05,0.105l0.103,0.209l0.052,0.104l0.052,0.104l0.054,0.103l0.054,0.104l0.055,0.103l0.055,0.101l0.055,0.102l0.057,0.102l0.057,0.101l0.058,0.101l0.058,0.101l0.059,0.1l0.059,0.1l0.121,0.198l0.123,0.197l0.062,0.097l0.126,0.195l0.064,0.096l0.065,0.096l0.065,0.096l0.065,0.095l0.2,0.284l0.069,0.093l0.068,0.094l0.069,0.093l0.07,0.092l0.07,0.092l0.213,0.273l0.072,0.091l0.073,0.09l0.074,0.089l0.074,0.088l0.074,0.089l0.075,0.088l0.151,0.175l0.153,0.173l0.078,0.085l0.078,0.086l0.079,0.085l0.078,0.083l0.079,0.084l0.081,0.084l0.08,0.083l0.081,0.082l0.163,0.163l0.083,0.081l0.166,0.161l0.084,0.079l0.084,0.079l0.085,0.079l0.257,0.232l0.086,0.076l0.088,0.076l0.087,0.075l0.177,0.15l0.089,0.074l0.089,0.073l0.09,0.073l0.18,0.144l0.092,0.071l0.183,0.141l0.093,0.069l0.092,0.069l0.094,0.069l0.187,0.135l0.095,0.067l0.095,0.066l0.095,0.065l0.096,0.066l0.096,0.064l0.096,0.064l0.098,0.064l0.097,0.062l0.098,0.063l0.197,0.123l0.198,0.121l0.1,0.058l0.1,0.06l0.1,0.057l0.202,0.116l0.204,0.111l0.205,0.11l0.103,0.054l0.207,0.107l0.105,0.052l0.104,0.051l0.105,0.051l0.105,0.05l0.211,0.099l0.106,0.049l0.108,0.048l0.106,0.047l0.107,0.047l0.108,0.046l0.107,0.045l0.109,0.044l0.109,0.044l0.218,0.086l0.109,0.042l0.11,0.041l0.111,0.042l0.109,0.039l0.111,0.04l0.111,0.039l0.224,0.076l0.111,0.037l0.113,0.036l0.225,0.07l0.114,0.033l0.113,0.034l0.114,0.033l0.114,0.031l0.114,0.032l0.115,0.031l0.115,0.029l0.115,0.03l0.115,0.029l0.116,0.028l0.116,0.027l0.116,0.026l0.117,0.026l0.117,0.025l0.117,0.025l0.117,0.023l0.236,0.045l0.118,0.022l0.118,0.021l0.238,0.039l0.238,0.036l0.12,0.017l0.24,0.033l0.241,0.029l0.121,0.013l0.121,0.013l0.243,0.023l0.243,0.02l0.123,0.009l0.122,0.008l0.245,0.015l0.247,0.01l0.124,0.005l0.123,0.003l0.125,0.003l0.123,0.002l0.124,0.001l0.25,0l0.124,-0.001l0.125,-0.002l0.123,-0.003l0.124,-0.003l0.123,-0.005l0.124,-0.005l0.123,-0.005l0.123,-0.008l0.123,-0.007l0.122,-0.008l0.122,-0.009l0.122,-0.01l0.122,-0.01l0.121,-0.011l0.122,-0.012l0.121,-0.013l0.12,-0.013l0.121,-0.015l0.121,-0.014l0.12,-0.016l0.12,-0.017l0.12,-0.017l0.118,-0.018l0.119,-0.018l0.119,-0.02l0.119,-0.019l0.118,-0.021l0.118,-0.022l0.118,-0.022l0.119,-0.023l0.117,-0.023l0.117,-0.025l0.116,-0.025l0.117,-0.026l0.116,-0.026l0.117,-0.027l0.115,-0.028l0.115,-0.029l0.116,-0.03l0.115,-0.029l0.115,-0.031l0.114,-0.032l0.114,-0.031l0.114,-0.033l0.113,-0.034l0.113,-0.033l0.113,-0.035l0.112,-0.035l0.113,-0.036l0.112,-0.037l0.112,-0.038l0.111,-0.038l0.111,-0.039l0.111,-0.04l0.111,-0.039l0.11,-0.042l0.11,-0.041l0.109,-0.042l0.109,-0.043l0.109,-0.043l0.109,-0.044l0.108,-0.044l0.108,-0.045l0.107,-0.046l0.108,-0.047l0.107,-0.047l0.106,-0.048l0.107,-0.049l0.105,-0.049l0.105,-0.05l0.106,-0.05l0.104,-0.051l0.105,-0.051l0.105,-0.052l0.103,-0.053l0.104,-0.054l0.103,-0.054l0.102,-0.055l0.103,-0.055l0.102,-0.055l0.102,-0.057l0.101,-0.057l0.1,-0.058l0.101,-0.057l0.1,-0.06l0.1,-0.058l0.099,-0.061l0.099,-0.06l0.098,-0.061l0.098,-0.062l0.099,-0.063l0.097,-0.062l0.097,-0.064l0.097,-0.064l0.095,-0.064l0.097,-0.066l0.095,-0.065l0.095,-0.066l0.094,-0.067l0.094,-0.068l0.094,-0.067l0.093,-0.069l0.093,-0.069l0.092,-0.069l0.092,-0.071l0.092,-0.07l0.091,-0.071l0.091,-0.072l0.089,-0.072l0.09,-0.073l0.09,-0.073l0.089,-0.074l0.088,-0.075l0.088,-0.075l0.088,-0.075l0.087,-0.076l0.087,-0.076l0.085,-0.077l0.087,-0.078l0.085,-0.077l0.084,-0.079l0.085,-0.079l0.084,-0.079l0.083,-0.081l0.083,-0.08l0.083,-0.081l0.081,-0.081l0.082,-0.082l0.081,-0.082l0.08,-0.083l0.08,-0.084l0.079,-0.084l0.079,-0.083l0.078,-0.085l0.079,-0.086l0.077,-0.085l0.077,-0.087l0.076,-0.086l0.076,-0.087l0.076,-0.088l0.075,-0.088l0.074,-0.089l0.073,-0.088l0.074,-0.089l0.073,-0.09l0.072,-0.091l0.072,-0.091l0.071,-0.091l0.071,-0.091l0.07,-0.092l0.07,-0.092l0.068,-0.093l0.069,-0.094l0.068,-0.093l0.067,-0.094l0.066,-0.095l0.067,-0.095l0.066,-0.095l0.065,-0.096l0.065,-0.096l0.064,-0.096l0.063,-0.098l0.063,-0.097l0.062,-0.097l0.061,-0.099l0.062,-0.098l0.061,-0.099l0.059,-0.099l0.06,-0.1l0.058,-0.1l0.059,-0.101l0.058,-0.101l0.056,-0.101l0.057,-0.102l0.056,-0.102l0.055,-0.101l0.054,-0.103l0.054,-0.104l0.054,-0.103l0.052,-0.104l0.053,-0.104l0.051,-0.104l0.051,-0.105l0.051,-0.105l0.049,-0.106l0.049,-0.106l0.049,-0.106l0.048,-0.107l0.047,-0.107l0.046,-0.107l0.046,-0.107l0.045,-0.108l0.045,-0.109l0.045,-0.108l0.043,-0.109l0.042,-0.109l0.042,-0.11l0.042,-0.11l0.04,-0.11l0.041,-0.111l0.039,-0.109l0.039,-0.112l0.038,-0.111l0.037,-0.112l0.037,-0.112l0.036,-0.112l0.036,-0.113l0.035,-0.112l0.034,-0.114l0.033,-0.114l0.033,-0.113l0.032,-0.115l0.032,-0.114l0.03,-0.114l0.03,-0.116l0.029,-0.114l0.029,-0.116l0.028,-0.116l0.027,-0.116l0.027,-0.116l0.025,-0.117l0.025,-0.117l0.024,-0.117l0.024,-0.117l0.023,-0.117l0.023,-0.118l0.021,-0.118l0.021,-0.119l0.02,-0.118l0.019,-0.119l0.019,-0.119l0.018,-0.12l0.017,-0.12l0.016,-0.12l0.015,-0.12l0.016,-0.119l0.014,-0.121l0.014,-0.121l0.012,-0.122l0.012,-0.12l0.011,-0.122l0.011,-0.122l0.01,-0.122l0.009,-0.122l0.008,-0.122l0.007,-0.123l0.006,-0.123l0.007,-0.123l0.004,-0.123l0.005,-0.124l0.003,-0.123l0.003,-0.125l0.002,-0.124l0.001,-0.124l0,-0.125l0,-0.124l-0.001,-0.125l-0.002,-0.124l-0.003,-0.124l-0.003,-0.124l-0.005,-0.123l-0.004,-0.124l-0.007,-0.122l-0.006,-0.124l-0.007,-0.122l-0.008,-0.123l-0.009,-0.121l-0.01,-0.123l-0.011,-0.122l-0.011,-0.121l-0.012,-0.121l-0.012,-0.122l-0.014,-0.12l-0.014,-0.121l-0.016,-0.12l-0.015,-0.12l-0.016,-0.121l-0.017,-0.119l-0.018,-0.119l-0.019,-0.119l-0.019,-0.119l-0.02,-0.118l-0.021,-0.119l-0.021,-0.118l-0.023,-0.119l-0.023,-0.117l-0.024,-0.117l-0.024,-0.117l-0.025,-0.117l-0.025,-0.116l-0.027,-0.117l-0.027,-0.116l-0.028,-0.116l-0.029,-0.115l-0.029,-0.115l-0.03,-0.115l-0.03,-0.115l-0.032,-0.114l-0.032,-0.115l-0.033,-0.113l-0.033,-0.114l-0.034,-0.113l-0.035,-0.113l-0.036,-0.113l-0.036,-0.111l-0.037,-0.113l-0.037,-0.112l-0.038,-0.11l-0.039,-0.112l-0.039,-0.11l-0.041,-0.111l-0.04,-0.11l-0.042,-0.11l-0.042,-0.11l-0.042,-0.109l-0.043,-0.109l-0.045,-0.108l-0.045,-0.108l-0.045,-0.108l-0.046,-0.108l-0.046,-0.107l-0.047,-0.107l-0.048,-0.106l-0.049,-0.107l-0.049,-0.106l-0.049,-0.105l-0.051,-0.106l-0.051,-0.104l-0.051,-0.105l-0.053,-0.104l-0.052,-0.104l-0.054,-0.103l-0.054,-0.104l-0.054,-0.102l-0.055,-0.102l-0.056,-0.102l-0.057,-0.102l-0.056,-0.102l-0.058,-0.1l-0.059,-0.101l-0.058,-0.1l-0.06,-0.1l-0.059,-0.099l-0.061,-0.099l-0.061,-0.098l-0.062,-0.098l-0.062,-0.098l-0.063,-0.097l-0.063,-0.097l-0.064,-0.097l-0.065,-0.096l-0.065,-0.096l-0.066,-0.095l-0.066,-0.095l-0.067,-0.094l-0.067,-0.095l-0.068,-0.093l-0.069,-0.094l-0.068,-0.092l-0.071,-0.093l-0.069,-0.092l-0.071,-0.091l-0.071,-0.091l-0.072,-0.091l-0.072,-0.09l-0.073,-0.09l-0.074,-0.09l-0.073,-0.088l-0.074,-0.089l-0.075,-0.088l-0.076,-0.088l-0.076,-0.086l-0.076,-0.087l-0.077,-0.086l-0.077,-0.086l-0.079,-0.086l-0.078,-0.084l-0.079,-0.084l-0.079,-0.084l-0.08,-0.084l-0.08,-0.083l-0.081,-0.082l-0.082,-0.082l-0.081,-0.081l-0.083,-0.081l-0.083,-0.08l-0.083,-0.08l-0.084,-0.08l-0.085,-0.079l-0.084,-0.078l-0.085,-0.078l-0.087,-0.077l-0.085,-0.078l-0.087,-0.076l-0.087,-0.076l-0.088,-0.075l-0.088,-0.076l-0.088,-0.073l-0.089,-0.074l-0.09,-0.073l-0.089,-0.073l-0.091,-0.072l-0.09,-0.073l-0.091,-0.071l-0.092,-0.07l-0.092,-0.07l-0.092,-0.07l-0.093,-0.069l-0.093,-0.069l-0.094,-0.067l-0.094,-0.068l-0.094,-0.066l-0.095,-0.066l-0.095,-0.066l-0.097,-0.066l-0.095,-0.064l-0.097,-0.064l-0.097,-0.064l-0.097,-0.062l-0.099,-0.063l-0.098,-0.061l-0.098,-0.062l-0.099,-0.06l-0.099,-0.06l-0.1,-0.059l-0.1,-0.059l-0.101,-0.058l-0.1,-0.058l-0.101,-0.056l-0.102,-0.057l-0.102,-0.056l-0.103,-0.055l-0.102,-0.055l-0.103,-0.054l-0.104,-0.053l-0.103,-0.053l-0.105,-0.053l-0.105,-0.051l-0.104,-0.051l-0.106,-0.05l-0.105,-0.05l-0.105,-0.049l-0.107,-0.049l-0.106,-0.048l-0.107,-0.046l-0.108,-0.047l-0.107,-0.046l-0.108,-0.045l-0.108,-0.044l-0.109,-0.045l-0.109,-0.043l-0.109,-0.043l-0.109,-0.043l-0.11,-0.04l-0.11,-0.042l-0.111,-0.039l-0.111,-0.04l-0.111,-0.039l-0.111,-0.037l-0.112,-0.038l-0.112,-0.037l-0.113,-0.036l-0.112,-0.035l-0.113,-0.036l-0.113,-0.033l-0.114,-0.034l-0.113,-0.033l-0.114,-0.031l-0.114,-0.032l-0.115,-0.03l-0.115,-0.03l-0.116,-0.03l-0.115,-0.029l-0.115,-0.028l-0.117,-0.027l-0.116,-0.026l-0.117,-0.026l-0.116,-0.025l-0.117,-0.024l-0.117,-0.024l-0.119,-0.022l-0.118,-0.023l-0.117,-0.022l-0.119,-0.02l-0.119,-0.02l-0.119,-0.02l-0.119,-0.018l-0.118,-0.018l-0.12,-0.017l-0.12,-0.016l-0.12,-0.017l-0.121,-0.014l-0.121,-0.014l-0.12,-0.014l-0.121,-0.012l-0.122,-0.012l-0.121,-0.012l-0.122,-0.01l-0.122,-0.01l-0.122,-0.009l-0.123,-0.008l-0.122,-0.007l-0.123,-0.007l-0.123,-0.006l-0.123,-0.005l-0.124,-0.005l-0.124,-0.003l-0.123,-0.003l-0.125,-0.002l-0.124,-0.001l-0.124,-0.001l-0.126,0.001Z"/>
            <circle cx="299.418" cy="40.244" r="21.73"/>
            <circle cx="255.957" cy="83.704" r="21.73"/>
            <circle cx="341.789" cy="83.704" r="21.73"/>
            <circle cx="341.789" cy="127.165" r="21.73"/>
        </g>
        <path d="M389.123,138.418l0,-88.907l62.562,68.345l0,-64.957l9.696,0l0,88.848l-62.561,-67.585l0,64.256l-9.697,0Z" style="fill-rule:nonzero;"/>
        <path d="M481.826,138.418l0,-85.519l45.096,0l0,9.288l-34.931,0l0,24.534l34.931,0l0,9.463l-34.931,0l0,32.771l34.931,0l0,9.463l-45.096,0Z" style="fill-rule:nonzero;"/>
        <path d="M559.109,138.418l0,-75.822l-24.184,0l0,-9.697l58.531,0l0,9.697l-24.066,0l0,75.822l-10.281,0Z" style="fill-rule:nonzero;"/>
        <path d="M0,138.651l0,-85.518l45.096,0l0,9.288l-34.932,0l0,24.534l34.932,0l0,9.463l-34.932,0l0,42.233l-10.164,0Z" style="fill-rule:nonzero;"/>
        <path d="M60.284,53.133l10.281,0l0,53.215c0,8.646 1.84,14.993 5.52,19.043c3.68,4.05 9.453,6.075 17.32,6.075c7.866,0 13.639,-2.025 17.319,-6.075c3.681,-4.05 5.521,-10.397 5.521,-19.043l0,-53.215l10.339,0l0,53.215c0,11.566 -2.755,20.221 -8.266,25.965c-5.51,5.745 -13.815,8.617 -24.913,8.617c-11.06,0 -19.345,-2.872 -24.856,-8.617c-5.51,-5.744 -8.265,-14.399 -8.265,-25.965l0,-53.215Z" style="fill-rule:nonzero;"/>
        <path d="M163.093,53.133l10.281,0l0,66.709c0,7.165 -1.587,12.471 -4.761,15.918c-3.174,3.446 -8.051,5.17 -14.633,5.17c-3.505,0 -6.669,-0.692 -9.492,-2.074c-2.823,-1.383 -5.481,-3.515 -7.974,-6.397l6.718,-6.717c2.103,2.181 4.05,3.738 5.841,4.673c1.792,0.935 3.661,1.402 5.608,1.402c3.077,0 5.248,-1.149 6.513,-3.447c1.266,-2.297 1.899,-6.815 1.899,-13.552l0,-61.685Z" style="fill-rule:nonzero;"/>
        <rect x="193.235" y="53.133" width="10.164" height="85.519" style="fill-rule:nonzero;"/>
    </g>
</svg>
