<?xml version="1.0" encoding="UTF-8"?>
<!DOCTYPE svg PUBLIC "-//W3C//DTD SVG 1.1//EN" "http://www.w3.org/Graphics/SVG/1.1/DTD/svg11.dtd">
<svg width="784" height="144" version="1.1" xmlns="http://www.w3.org/2000/svg">
	<g style="fill: none; stroke-width: 1.0;">
		<g stroke="blue">
			<!-- SPACE -->
			<path d="M8 36"/>
			<!-- EXCLAMATION MARK -->
			<path d="M48 32L48 28L52 28L52 32L48 32M48 24L48 8L52 8L52 24L48 24"/>
			<!-- QUOTATION MARK -->
			<path d="M76 8L76 12M84 8L84 12"/>
			<!-- NUMBER SIGN -->
			<path d="M108 28L108 12M116 12L116 28M120 24L104 24M104 16L120 16"/>
			<!-- DOLLAR SIGN -->
			<path d="M140 28L148 28L152 24L148 20L140 20L136 16L140 12L148 12M144 8L144 32"/>
			<!-- PERCENT SIGN -->
			<path d="M168 28L184 12M172 12L168 12L168 16L172 16L172 12M180 24L184 24L184 28L180 28L180 24"/>
			<!-- AMPERSAND -->
			<path d="M216 32L200 16L200 12L204 8L208 12L208 16L200 24L200 28L204 32L208 32L216 24"/>
			<!-- APOSTROPHE -->
			<path d="M240 16L240 8"/>
			<!-- LEFT PARENTHESIS -->
			<path d="M276 32L272 32L268 28L268 12L272 8L276 8"/>
			<!-- RIGHT PARENTHESIS -->
			<path d="M304 32L308 32L312 28L312 12L308 8L304 8"/>
			<!-- ASTERISK -->
			<path d="M328 28L344 12M328 12L344 28M336 12L336 28"/>
			<!-- PLUS SIGN -->
			<path d="M368 28L368 12M360 20L376 20"/>
			<!-- COMMA -->
			<path d="M400 36L404 32L404 28L400 28L400 32L404 32"/>
			<!-- HYPHEN-MINUS -->
			<path d="M424 20L440 20"/>
			<!-- FULL STOP -->
			<path d="M464 32L464 28L468 28L468 32L464 32"/>
			<!-- SOLIDUS -->
			<path d="M488 32L508 12"/>
			<!-- DIGIT ZERO -->
			<path d="M520 28L536 12L532 8L524 8L520 12L520 28L524 32L532 32L536 28L536 12"/>
			<!-- DIGIT ONE -->
			<path d="M556 12L560 8L560 32M556 32L564 32"/>
			<!-- DIGIT TWO -->
			<path d="M584 12L588 8L596 8L600 12L600 16L584 32L600 32"/>
			<!-- DIGIT THREE -->
			<path d="M616 12L620 8L628 8L632 12L632 16L628 20L624 20M628 20L632 24L632 28L628 32L620 32L616 28"/>
			<!-- DIGIT FOUR -->
			<path d="M660 32L660 8L648 20L648 24L664 24"/>
			<!-- DIGIT FIVE -->
			<path d="M680 28L684 32L692 32L696 28L696 20L692 16L680 16L680 8L696 8"/>
			<!-- DIGIT SIX -->
			<path d="M712 20L716 16L724 16L728 20L728 28L724 32L716 32L712 28L712 12L716 8L724 8L728 12"/>
			<!-- DIGIT SEVEN -->
			<path d="M744 32L760 16L760 8L744 8"/>
		</g>
		<g stroke="green">
			<!-- SPACE -->
			<path d="M12 52L8 48L8 44L12 40L20 40L24 44L24 48L20 52L24 56L24 60L20 64L12 64L8 60L8 56L12 52L20 52"/>
			<!-- EXCLAMATION MARK -->
			<path d="M40 60L44 64L52 64L56 60L56 44L52 40L44 40L40 44L40 48L44 52L52 52L56 48"/>
			<!-- QUOTATION MARK -->
			<path d="M76 60L76 56L80 56L80 60L76 60M76 48L76 44L80 44L80 48L76 48"/>
			<!-- NUMBER SIGN -->
			<path d="M108 64L112 60L112 56L108 56L108 60L112 60M112 48L112 44L108 44L108 48L112 48"/>
			<!-- DOLLAR SIGN -->
			<path d="M152 64L140 52L152 40"/>
			<!-- PERCENT SIGN -->
			<path d="M172 56L184 56M172 48L184 48"/>
			<!-- AMPERSAND -->
			<path d="M204 64L216 52L204 40"/>
			<!-- APOSTROPHE -->
			<path d="M232 44L236 40L244 40L248 44L248 48L244 52L240 52L240 56M240 60L240 64"/>
			<!-- LEFT PARENTHESIS -->
			<path d="M276 56L276 48L268 48L268 60L276 60L280 56L280 48L276 44L268 44L264 48L264 60L268 64L280 64"/>
			<!-- RIGHT PARENTHESIS -->
			<path d="M296 64L296 48L304 40L312 48L312 64M296 52L312 52"/>
			<!-- ASTERISK -->
			<path d="M328 64L328 40L340 40L344 44L344 48L340 52M328 52L340 52L344 56L344 60L340 64L328 64"/>
			<!-- PLUS SIGN -->
			<path d="M376 60L372 64L364 64L360 60L360 44L364 40L372 40L376 44"/>
			<!-- COMMA -->
			<path d="M392 64L392 40L404 40L408 44L408 60L404 64L392 64"/>
			<!-- HYPHEN-MINUS -->
			<path d="M440 64L424 64L424 40L440 40M436 52L424 52"/>
			<!-- FULL STOP -->
			<path d="M456 64L456 40L472 40M456 52L468 52"/>
			<!-- SOLIDUS -->
			<path d="M504 44L500 40L492 40L488 44L488 60L492 64L504 64L504 52L496 52"/>
			<!-- DIGIT ZERO -->
			<path d="M520 64L520 40M536 40L536 64M520 52L536 52"/>
			<!-- DIGIT ONE -->
			<path d="M556 64L564 64M560 64L560 40M556 40L564 40"/>
			<!-- DIGIT TWO -->
			<path d="M584 60L588 64L592 64L596 60L596 40"/>
			<!-- DIGIT THREE -->
			<path d="M616 64L616 40M632 40L616 56M620 52L632 64"/>
			<!-- DIGIT FOUR -->
			<path d="M648 40L648 64L664 64"/>
			<!-- DIGIT FIVE -->
			<path d="M680 64L680 40L688 48L688 52L688 48L696 40L696 64"/>
			<!-- DIGIT SIX -->
			<path d="M712 64L712 40M712 44L728 60M728 40L728 64"/>
			<!-- DIGIT SEVEN -->
			<path d="M744 60L744 44L748 40L756 40L760 44L760 60L756 64L748 64L744 60"/>
		</g>
		<g stroke="red">
			<!-- SPACE -->
			<path d="M8 96L8 72L20 72L24 76L24 80L20 84L8 84"/>
			<!-- EXCLAMATION MARK -->
			<path d="M48 88L56 96M52 96L44 96L40 92L40 76L44 72L52 72L56 76L56 92L52 96"/>
			<!-- QUOTATION MARK -->
			<path d="M72 96L72 72L84 72L88 76L88 80L84 84L72 84M76 84L88 96"/>
			<!-- NUMBER SIGN -->
			<path d="M104 92L108 96L116 96L120 92L120 88L116 84L108 84L104 80L104 76L108 72L116 72L120 76"/>
			<!-- DOLLAR SIGN -->
			<path d="M144 96L144 72M136 72L152 72"/>
			<!-- PERCENT SIGN -->
			<path d="M168 72L168 92L172 96L180 96L184 92L184 72"/>
			<!-- AMPERSAND -->
			<path d="M200 72L200 88L208 96L216 88L216 72"/>
			<!-- APOSTROPHE -->
			<path d="M232 72L232 96L240 88M240 84L240 88L248 96L248 72"/>
			<!-- LEFT PARENTHESIS -->
			<path d="M264 96L264 92L280 76L280 72M264 72L264 76L280 92L280 96"/>
			<!-- RIGHT PARENTHESIS -->
			<path d="M304 96L304 84L312 76L312 72M296 72L296 76L304 84"/>
			<!-- ASTERISK -->
			<path d="M328 72L344 72L344 76L328 92L328 96L344 96"/>
			<!-- PLUS SIGN -->
			<path d="M368 96L360 96L360 72L368 72"/>
			<!-- COMMA -->
			<path d="M412 76L408 76L404 80L404 92L400 96L396 96L392 92L396 88L404 96L412 96M400 84L408 84"/>
			<!-- HYPHEN-MINUS -->
			<path d="M428 96L436 96L436 72L428 72"/>
			<!-- FULL STOP -->
			<path d="M464 96L464 76M456 84L464 76L472 84"/>
			<!-- SOLIDUS -->
			<path d="M496 92L488 84L496 76M488 84L508 84"/>
			<!-- DIGIT ZERO -->
			<path d="M520 84L548 84"/>
			<!-- DIGIT ONE -->
			<path d="M564 92L560 96L556 96L552 92L552 88L556 84L560 84L564 88M552 80L560 80L564 84L564 92L568 96"/>
			<!-- DIGIT TWO -->
			<path d="M584 72L584 96L592 96L596 92L596 84L592 80L584 80"/>
			<!-- DIGIT THREE -->
			<path d="M628 92L624 96L620 96L616 92L616 84L620 80L624 80L628 84"/>
			<!-- DIGIT FOUR -->
			<path d="M660 80L652 80L648 84L648 92L652 96L660 96L660 72"/>
			<!-- DIGIT FIVE -->
			<path d="M680 88L692 88L692 84L688 80L684 80L680 84L680 92L684 96L692 96"/>
			<!-- DIGIT SIX -->
			<path d="M720 96L720 72L724 72M716 84L724 84"/>
			<!-- DIGIT SEVEN -->
			<path d="M744 96L748 100L752 100L756 96L756 84L752 80L748 80L744 84L744 88L748 92L752 92L756 88"/>
		</g>
		<g stroke="black">
			<!-- SPACE -->
			<path d="M8 128L8 104M8 112L16 112L20 116L20 128"/>
			<!-- EXCLAMATION MARK -->
			<path d="M48 128L48 116M48 112L48 108"/>
			<!-- QUOTATION MARK -->
			<path d="M72 128L76 132L80 132L84 128L84 116M84 112L84 108"/>
			<!-- NUMBER SIGN -->
			<path d="M116 128L108 120M104 104L104 128M104 124L116 112"/>
			<!-- DOLLAR SIGN -->
			<path d="M140 104L140 128L144 128"/>
			<!-- PERCENT SIGN -->
			<path d="M168 128L168 112M168 116L172 112L176 116L176 128M176 116L180 112L184 116L184 128"/>
			<!-- AMPERSAND -->
			<path d="M200 128L200 112L200 116L204 112L208 112L212 116L212 128"/>
			<!-- APOSTROPHE -->
			<path d="M232 124L232 116L236 112L240 112L244 116L244 124L240 128L236 128L232 124"/>
			<!-- LEFT PARENTHESIS -->
			<path d="M264 124L272 124L276 120L276 116L272 112L264 112L264 132"/>
			<!-- RIGHT PARENTHESIS -->
			<path d="M312 132L308 132L308 112L300 112L296 116L296 120L300 124L308 124"/>
			<!-- ASTERISK -->
			<path d="M328 112L332 116L332 128M332 116L336 112L340 112"/>
			<!-- PLUS SIGN -->
			<path d="M360 124L364 128L368 128L372 124L368 120L364 120L360 116L364 112L368 112L372 116"/>
			<!-- COMMA -->
			<path d="M392 112L400 112M396 104L396 128L400 128"/>
			<!-- HYPHEN-MINUS -->
			<path d="M424 112L424 128L436 128L436 112"/>
			<!-- FULL STOP -->
			<path d="M456 112L456 120L464 128L472 120L472 112"/>
			<!-- SOLIDUS -->
			<path d="M488 112L488 124L492 128L496 124L496 120L496 124L500 128L504 124L504 112"/>
			<!-- DIGIT ZERO -->
			<path d="M520 128L536 112M520 112L536 128"/>
			<!-- DIGIT ONE -->
			<path d="M552 112L552 116L560 124M568 112L568 116L552 132"/>
			<!-- DIGIT TWO -->
			<path d="M584 112L600 112L584 128L600 128"/>
			<!-- DIGIT THREE -->
			<path d="M628 132L628 104"/>
			<!-- DIGIT FOUR -->
			<path d="M676 132L648 132"/>
			<!-- DIGIT FIVE -->
			<path d="M680 128L692 116L704 128L680 128"/>
			<!-- DIGIT SIX -->
			<path d="M712 120L716 116L724 116L724 128M716 128L716 116L724 116L728 112"/>
			<!-- DIGIT SEVEN -->
			<path d="M744 128L744 104L764 104L764 128L744 128"/>
		</g>
	</g>
</svg>
