<svg id="Layer_1" data-name="Layer 1" xmlns="http://www.w3.org/2000/svg" viewBox="0 0 512 512"><defs><style>.cls-1{fill:#efeae6;}.cls-2{fill:#ffd38d;}.cls-3{fill:#6d4135;}</style></defs><title>printer-filled</title><rect class="cls-1" x="106.67" y="21.33" width="298.67" height="170.67"/><rect class="cls-2" x="21.33" y="192" width="469.33" height="213.33"/><rect class="cls-1" x="106.67" y="384" width="298.67" height="106.67"/><path class="cls-3" d="M490.67,170.67h-64V21.33A21.33,21.33,0,0,0,405.33,0H106.67A21.33,21.33,0,0,0,85.33,21.33V170.67h-64A21.33,21.33,0,0,0,0,192V405.33a21.33,21.33,0,0,0,21.33,21.33h64v64A21.33,21.33,0,0,0,106.67,512H405.33a21.33,21.33,0,0,0,21.33-21.33v-64h64A21.33,21.33,0,0,0,512,405.33V192A21.33,21.33,0,0,0,490.67,170.67ZM128,42.67H384v128H128ZM384,469.33H128v-64H384ZM469.33,384H426.67a21.33,21.33,0,0,0-21.33-21.33H106.67A21.33,21.33,0,0,0,85.33,384H42.67V213.33H469.33Z"/><circle class="cls-3" cx="405.33" cy="298.67" r="21.33"/></svg>